<?xml version="1.0" encoding="UTF-8"?>
<svg xmlns="http://www.w3.org/2000/svg" xmlns:xlink="http://www.w3.org/1999/xlink" width="14px" height="14px" viewBox="0 0 14 13" version="1.1">
<g id="surface1">
<path style="fill:#666d89;" d="M 0.769531 3.242188 C 0.769531 4.34375 1.15625 5.140625 1.921875 5.605469 C 2.445312 5.902344 3.042969 6.054688 3.652344 6.046875 C 3.746094 6.046875 3.820312 6.046875 3.871094 6.046875 C 3.824219 6.578125 3.988281 7.105469 4.328125 7.523438 L 4.304688 7.523438 C 3.296875 7.519531 0.03125 7.714844 0.03125 10.269531 C 0.03125 12.867188 3.035156 13 3.636719 13 L 3.832031 13 C 4.632812 13 5.421875 12.839844 6.148438 12.527344 C 7.351562 11.964844 7.964844 11.003906 7.964844 9.65625 C 7.964844 8.351562 7.03125 7.578125 6.355469 7.007812 C 5.9375 6.664062 5.574219 6.367188 5.574219 6.074219 C 5.574219 5.785156 5.835938 5.558594 6.167969 5.273438 C 6.707031 4.820312 7.210938 4.171875 7.210938 2.949219 C 7.210938 1.871094 7.0625 1.148438 6.15625 0.691406 C 6.351562 0.640625 6.554688 0.605469 6.753906 0.589844 C 7.246094 0.527344 7.964844 0.453125 7.964844 0.0742188 L 7.964844 0 L 4.386719 0 C 4.351562 0 0.769531 0.128906 0.769531 3.242188 Z M 6.542969 9.898438 C 6.613281 10.933594 5.675781 11.703125 4.269531 11.800781 C 2.867188 11.898438 1.667969 11.289062 1.601562 10.253906 C 1.582031 9.722656 1.820312 9.214844 2.25 8.875 C 2.746094 8.46875 3.367188 8.226562 4.023438 8.191406 C 4.105469 8.191406 4.179688 8.183594 4.261719 8.183594 C 5.585938 8.183594 6.480469 8.917969 6.542969 9.898438 Z M 5.609375 2.527344 C 5.960938 3.699219 5.429688 4.925781 4.585938 5.152344 C 4.488281 5.179688 4.390625 5.191406 4.289062 5.191406 C 3.511719 5.191406 2.746094 4.453125 2.464844 3.417969 C 2.304688 2.90625 2.316406 2.363281 2.5 1.859375 C 2.675781 1.390625 3 1.066406 3.40625 0.960938 C 3.5 0.933594 3.601562 0.921875 3.703125 0.921875 C 4.636719 0.921875 5.238281 1.289062 5.609375 2.53125 Z M 11.636719 5.082031 L 11.636719 2.867188 L 10.160156 2.867188 L 10.160156 5.082031 L 7.824219 5.082031 L 7.824219 6.488281 L 10.160156 6.488281 L 10.160156 8.703125 L 11.636719 8.703125 L 11.636719 6.488281 L 13.96875 6.488281 L 13.96875 5.082031 Z M 11.636719 5.082031 "/>
</g>
</svg>
