<?xml version="1.0" encoding="UTF-8"?>
<svg xmlns="http://www.w3.org/2000/svg" xmlns:xlink="http://www.w3.org/1999/xlink" width="14px" height="14px" viewBox="0 0 14 13" version="1.1">
<g id="surface1">
<path style="fill:#666d89;" d="M 3.171875 1.425781 C 3.171875 2.203125 2.558594 2.828125 1.554688 2.828125 C 0.609375 2.828125 0 2.203125 0 1.425781 C 0 0.648438 0.628906 0.0195312 1.59375 0.0195312 C 2.558594 0.0195312 3.148438 0.628906 3.171875 1.425781 Z M 0.078125 12.980469 L 0.078125 3.9375 L 3.070312 3.9375 L 3.070312 12.980469 Z M 0.078125 12.980469 "/>
<path style="fill:#666d89;" d="M 4.863281 6.824219 C 4.863281 5.695312 4.824219 4.753906 4.785156 3.9375 L 7.382812 3.9375 L 7.519531 5.195312 L 7.582031 5.195312 C 8.238281 4.261719 9.359375 3.707031 10.554688 3.738281 C 12.523438 3.734375 14 4.976562 14 7.636719 L 14 12.980469 L 11.007812 12.980469 L 11.007812 7.96875 C 11.007812 6.804688 10.578125 6.007812 9.488281 6.007812 C 8.660156 6.007812 8.167969 6.542969 7.953125 7.0625 C 7.878906 7.285156 7.84375 7.523438 7.855469 7.761719 L 7.855469 12.976562 L 4.863281 12.976562 Z M 4.863281 6.824219 "/>
</g>
</svg>
