<?xml version="1.0" encoding="UTF-8"?>
<svg xmlns="http://www.w3.org/2000/svg" xmlns:xlink="http://www.w3.org/1999/xlink" width="14px" height="12px" viewBox="0 0 14 12" version="1.1">
<g id="surface1">
<path style="fill:#666d89;" d="M 14 1.433594 C 13.476562 1.679688 12.921875 1.84375 12.351562 1.914062 C 12.949219 1.539062 13.398438 0.945312 13.613281 0.242188 C 13.050781 0.597656 12.433594 0.84375 11.789062 0.976562 C 10.898438 -0.015625 9.488281 -0.257812 8.34375 0.386719 C 7.199219 1.027344 6.605469 2.394531 6.894531 3.726562 C 4.585938 3.605469 2.433594 2.457031 0.972656 0.570312 C 0.210938 1.949219 0.601562 3.714844 1.863281 4.601562 C 1.40625 4.589844 0.960938 4.460938 0.5625 4.226562 C 0.5625 4.238281 0.5625 4.25 0.5625 4.261719 C 0.566406 5.699219 1.527344 6.933594 2.867188 7.21875 C 2.441406 7.339844 2 7.355469 1.570312 7.269531 C 1.941406 8.503906 3.019531 9.347656 4.25 9.375 C 3.234375 10.214844 1.976562 10.667969 0.683594 10.667969 C 0.457031 10.667969 0.226562 10.652344 0 10.625 C 1.3125 11.511719 2.839844 11.984375 4.402344 11.980469 C 9.6875 11.980469 12.574219 7.378906 12.574219 3.386719 C 12.574219 3.257812 12.574219 3.128906 12.566406 2.996094 C 13.128906 2.570312 13.613281 2.042969 14 1.433594 Z M 14 1.433594 "/>
</g>
</svg>
